<?xml version="1.0" encoding="utf-8"?>
<!-- Generator: Adobe Illustrator 16.0.0, SVG Export Plug-In . SVG Version: 6.00 Build 0)  -->
<!DOCTYPE svg PUBLIC "-//W3C//DTD SVG 1.1//EN" "http://www.w3.org/Graphics/SVG/1.1/DTD/svg11.dtd">
<svg version="1.1" id="Layer_1" xmlns="http://www.w3.org/2000/svg" xmlns:xlink="http://www.w3.org/1999/xlink" x="0px" y="0px"
	 width="841.89px" height="595.28px" viewBox="0 0 841.89 595.28" enable-background="new 0 0 841.89 595.28" xml:space="preserve">
<g>
	<g>
		<g>
			<path d="M486.941,264.795c1.774,4.096,2.669,9.306,2.669,15.65c0,5.251-0.129,10.647-0.367,16.191
				c-0.253,5.558-0.368,11.442-0.368,17.666v11.891c0,1.956,0.029,3.873,0.094,5.771c0.058,1.893,0.151,3.69,0.274,5.39
				c-2.476-0.238-5.056-0.357-7.772-0.357c-2.599,0-5.139,0.119-7.606,0.357c0.245-6.338,0.53-12.862,0.83-19.575
				c0.311-6.71,0.458-13.604,0.458-20.676v-11.161c0-9.155-1.771-16.078-5.308-20.782c-3.536-4.69-8.415-7.043-14.643-7.043
				c-8.538,0-14.795,2.627-18.757,7.873c-3.962,5.247-5.955,12.624-5.955,22.148v15.548c0,5.485,0.096,11.257,0.286,17.291
				c0.18,6.046,0.572,11.502,1.188,16.377c-2.811-0.238-5.552-0.357-8.23-0.357c-2.691,0-5.438,0.119-8.236,0.357
				c0.603-4.875,1.004-10.331,1.188-16.377c0.186-6.034,0.274-11.806,0.274-17.291v-19.034c0-4.993-0.083-10.258-0.233-15.719
				c-0.722,1.552-1.455,3.151-2.236,4.833c-2.622,5.676-5.492,11.962-8.601,18.85c-3.105,6.893-6.278,13.972-9.516,21.229
				c-3.232,7.264-6.434,14.461-9.608,21.595c-3.176,7.137-6.101,13.906-8.779,20.31c-2.687,6.41-5.032,12.205-7.049,17.387
				c-2.012,5.191-3.504,9.304-4.481,12.354c-2.441-0.61-4.52-0.92-6.227-0.92s-3.783,0.31-6.219,0.92
				c9.632-15.985,17.816-31.968,24.523-47.945c-1.337-3.295-3.085-7.562-5.221-12.813c-2.131-5.241-4.417-10.768-6.857-16.562
				c-2.441-5.789-4.942-11.71-7.509-17.751c-2.561-6.033-4.973-11.709-7.228-17.022c-2.263-5.298-4.233-9.966-5.945-13.989
				c-1.714-4.029-2.991-7.019-3.843-8.97c1.588,0.237,3.044,0.452,4.392,0.639c1.344,0.184,2.681,0.273,4.023,0.273
				c1.337,0,2.687-0.09,4.028-0.273c1.337-0.187,2.806-0.401,4.386-0.639c3.785,11.708,7.998,23.3,12.629,34.766
				c4.639,11.471,9.521,23.301,14.643,35.5c5.126-10.73,10.044-22.196,14.742-34.396c4.679-12.158,8.839-24.077,12.485-35.746
				c2.621,0.49,5.761,0.879,9.161,0.879c3.415,0,6.183-0.354,8.619-0.872c-0.357,4.833-0.549,9.674-0.549,14.509h0.37
				c3.435-5.246,7.533-9.306,12.297-12.17c4.777-2.871,10.464-4.303,17.082-4.303c3.425,0,6.874,0.488,10.37,1.463
				c3.485,0.978,6.64,2.655,9.454,5.037C482.881,257.478,485.173,260.713,486.941,264.795z M357.482,299.108
				c0-6.709-1.431-12.08-4.296-16.104c-2.87-4.021-6.44-7.323-10.707-9.878c-4.274-2.56-8.875-4.727-13.816-6.498
				c-4.943-1.767-9.552-3.785-13.818-6.041c-4.267-2.255-7.836-5.032-10.708-8.326c-2.864-3.294-4.29-7.801-4.29-13.537
				c0-3.294,0.566-6.343,1.73-9.148c1.163-2.811,2.806-5.224,4.941-7.234c2.131-2.012,4.631-3.568,7.502-4.668
				c2.865-1.097,6.012-1.646,9.425-1.646s6.338,0.586,8.779,1.742c2.448,1.158,4.548,2.591,6.321,4.303
				c1.767,1.709,3.168,3.559,4.207,5.583c1.04,2.004,1.862,3.873,2.472,5.572h2.196c0.729-3.532,1.463-6.462,2.195-8.784
				c0.729-2.316,1.649-4.512,2.741-6.584c-3.659-2.93-7.623-5.091-11.89-6.492c-4.274-1.404-9.335-2.107-15.189-2.107
				c-6.1,0-11.598,0.854-16.469,2.56c-4.888,1.713-9.063,4.088-12.539,7.139c-3.479,3.05-6.128,6.673-7.962,10.887
				c-1.832,4.208-2.745,8.88-2.745,14.002c0,7.197,1.433,12.927,4.297,17.201c2.871,4.268,6.441,7.776,10.708,10.522
				c4.274,2.745,8.88,5.031,13.816,6.857c4.948,1.833,9.55,3.85,13.823,6.046c4.262,2.197,7.83,4.941,10.702,8.235
				c2.865,3.289,4.304,7.747,4.304,13.358c0,3.658-0.615,7.108-1.833,10.338c-1.224,3.234-2.961,6.04-5.211,8.427
				c-2.268,2.369-5.007,4.256-8.235,5.664c-3.241,1.403-6.871,2.107-10.899,2.107c-3.897,0-7.437-0.579-10.612-1.743
				c-3.175-1.151-5.944-2.644-8.326-4.477c-2.374-1.838-4.386-3.868-6.033-6.136c-1.647-2.255-2.961-4.487-3.94-6.679h-2.19
				c-0.369,3.539-0.763,6.428-1.187,8.696c-0.437,2.257-1.194,4.78-2.292,7.599c3.176,2.56,7.102,4.841,11.806,6.857
				c4.692,2.012,10.82,3.014,18.395,3.014c7.067,0,13.382-1.002,18.938-3.014c5.55-2.017,10.248-4.882,14.085-8.607
				c3.845-3.711,6.775-8.075,8.786-13.082C356.481,310.036,357.482,304.725,357.482,299.108z M779.848,248.877
				c-0.859,1.714-2.234,4.608-4.117,8.69c-1.898,4.094-4.157,8.971-6.78,14.641c-2.616,5.677-5.481,11.961-8.584,18.849
				c-3.114,6.899-6.301,13.966-9.526,21.229c-3.227,7.258-6.444,14.457-9.605,21.589c-3.176,7.145-6.098,13.911-8.782,20.322
				c-2.685,6.404-5.037,12.194-7.051,17.379c-2.003,5.182-3.507,9.306-4.475,12.355c-2.446-0.613-4.518-0.913-6.228-0.913
				c-1.711,0-3.789,0.3-6.222,0.913c9.635-15.983,17.812-31.967,24.522-47.944c-1.342-3.302-3.085-7.562-5.21-12.814
				c-2.137-5.246-4.428-10.761-6.863-16.562c-2.446-5.789-4.943-11.704-7.506-17.749c-2.562-6.035-4.979-11.711-7.23-17.018
				c-2.255-5.306-4.243-9.974-5.95-14.002c-0.166-0.394-0.311-0.739-0.465-1.115c-3.05-0.222-6.06-0.441-8.964-0.705
				c-3.355-0.315-6.675-0.524-9.966-0.645l-0.372,0.365c3.785,2.07,6.838,5.274,9.154,9.608c2.316,4.327,3.476,8.815,3.476,13.447
				c0,9.15-3.086,16.323-9.241,21.504c-6.171,5.193-14.434,7.777-24.79,7.777c-1.71,0-3.392-0.06-5.033-0.186
				c-1.656-0.12-3.33-0.18-5.044-0.18c-2.184,0-4.237,0.789-6.124,2.377c-1.891,1.593-2.84,3.6-2.84,6.04
				c0,3.176,0.762,5.49,2.292,6.959c1.516,1.456,4.358,2.255,8.508,2.376c3.41,0.119,6.77,0.214,10.067,0.279
				c3.299,0.055,6.646,0.155,10.067,0.269c5.604,0.125,10.392,0.8,14.354,2.013c3.977,1.217,7.209,2.864,9.705,4.936
				c2.505,2.076,4.338,4.453,5.489,7.143c1.158,2.682,1.743,5.611,1.743,8.787c0,4.266-0.838,8.6-2.469,12.987
				c-1.649,4.394-4.215,8.355-7.7,11.9c-3.472,3.534-7.952,6.457-13.444,8.779c-5.484,2.321-12.077,3.479-19.767,3.479
				c-11.835,0-21.163-2.351-27.997-7.049c-6.827-4.689-10.247-11.131-10.247-19.301c0-3.175,0.581-6.106,1.742-8.786
				c1.158-2.687,2.648-5.067,4.488-7.132c1.819-2.083,3.891-3.73,6.214-4.949c2.324-1.223,4.698-2.13,7.145-2.744v-0.364
				c-3.796-1.104-6.661-2.931-8.609-5.491c-1.955-2.56-2.93-5.609-2.93-9.149c0-2.076,0.4-3.964,1.201-5.676
				c0.787-1.706,1.79-3.229,3.021-4.579c1.212-1.337,2.612-2.428,4.2-3.287c1.576-0.854,3.117-1.403,4.578-1.646v-0.365
				c-5.617-2.44-10.009-5.885-13.181-10.338c-3.168-4.458-4.756-10.038-4.756-16.753c0-5.114,0.909-9.537,2.749-13.269
				c1.826-3.713,4.355-6.792,7.578-9.239c3.247-2.435,6.964-4.261,11.172-5.483c4.214-1.224,8.692-1.833,13.451-1.833
				c2.324,0,4.55,0.066,6.69,0.185c2.128,0.125,4.842,0.304,8.14,0.549c2.05,0.179,3.876,0.315,5.607,0.425l-0.058,0.03
				c0,0,0.687,0.034,1.79,0.083c0.047,0.005,0.108,0.011,0.155,0.011c2.197,0.121,3.965,0.181,5.312,0.181c0.025,0,0.035,0,0.062,0
				c7.462,0.202,18.784,0.25,25.323-0.975c0.52-0.064,0.978-0.13,1.516-0.215c3.777,11.711,7.992,23.309,12.621,34.767
				c4.647,11.473,9.516,23.308,14.65,35.5c5.116-10.73,10.038-22.196,14.722-34.396c4.709-12.198,8.884-24.16,12.55-35.871
				c2.425,0.61,4.445,0.915,6.037,0.915C775.398,249.792,777.404,249.487,779.848,248.877z M639.858,341.478
				c-5.012,2.986-7.516,8.386-7.516,16.192c0,4.149,0.706,7.688,2.114,10.619c1.396,2.925,3.294,5.306,5.672,7.138
				c2.374,1.826,5.214,3.17,8.509,4.028c3.294,0.848,6.826,1.277,10.616,1.277c3.658,0,7.252-0.496,10.792-1.461
				c3.547-0.985,6.679-2.448,9.425-4.394c2.746-1.957,4.969-4.429,6.679-7.413c1.711-2.989,2.569-6.56,2.569-10.708
				c0-7.323-2.14-12.438-6.408-15.375c-4.272-2.923-11.345-4.386-21.231-4.386C651.932,336.996,644.856,338.488,639.858,341.478z
				 M678.825,277.52c0-7.692-1.812-13.547-5.478-17.575c-3.666-4.024-8.487-6.03-14.47-6.03c-6.589,0-11.709,2.221-15.368,6.674
				c-3.651,4.458-5.484,10.408-5.484,17.84c0,7.688,1.671,13.764,5.026,18.209c3.359,4.458,8.57,6.685,15.646,6.685
				c3.544,0,6.561-0.698,9.064-2.105c2.497-1.403,4.568-3.296,6.228-5.671c1.646-2.375,2.862-5.127,3.667-8.235
				C678.432,284.199,678.825,280.94,678.825,277.52z M624.483,264.521c0-2.437,0.058-5.146,0.173-8.141
				c0.119-2.991,0.491-5.218,1.111-6.679c-1.227-0.489-2.233-0.789-3.023-0.914c-0.797-0.118-1.739-0.185-2.836-0.185
				c-8.906,0-16.967,6.588-24.162,19.768l-0.368-0.186c0-2.322,0.033-4.756,0.098-7.323c0.062-2.561,0.336-6.033,0.826-10.426
				c-1.346,0.237-2.634,0.452-3.839,0.639c-1.228,0.184-2.389,0.273-3.486,0.273c-1.342,0-2.619-0.09-3.846-0.273
				c-1.227-0.187-2.504-0.401-3.836-0.639c0.365,8.052,0.567,15.184,0.646,21.407c0.05,6.227,0.086,11.711,0.086,16.467v5.856
				c0,10.372-0.036,19.122-0.086,26.267c-0.079,7.138-0.281,12.779-0.646,16.92c2.436-0.238,4.997-0.357,7.682-0.357
				c2.433,0,4.883,0.119,7.325,0.357c-0.368-2.68-0.591-6.183-0.642-10.522c-0.065-4.315-0.08-10.576-0.08-18.752v-20.131
				c0-3.534,0.415-6.865,1.274-9.968c0.848-3.116,2.067-5.795,3.655-8.053c1.573-2.255,3.528-4.064,5.86-5.406
				c2.315-1.343,4.942-2.007,7.865-2.007c1.826,0,3.631,0.305,5.395,0.915c1.765,0.607,2.948,1.282,3.569,2.012L624.483,264.521z
				 M573.52,271.479c1.526,4.513,2.28,9.33,2.28,14.462c0,1.219-0.025,2.405-0.087,3.563c-0.058,1.164-0.151,2.351-0.281,3.568
				c-6.581-0.118-13.112-0.243-19.579-0.364c-6.466-0.124-13.001-0.184-19.578-0.184c-4.027,0-8.019,0.06-11.983,0.184
				c-3.969,0.121-7.975,0.246-11.983,0.364c-0.134,0.61-0.188,1.523-0.188,2.746v2.377c0,4.763,0.699,9.213,2.1,13.363
				c1.403,4.142,3.446,7.716,6.134,10.706c2.686,2.983,5.976,5.365,9.88,7.134c3.904,1.771,8.422,2.655,13.55,2.655
				c2.421,0,4.939-0.342,7.494-1.009c2.569-0.669,5.066-1.588,7.505-2.74c2.439-1.164,4.72-2.537,6.87-4.117
				c2.122-1.588,3.984-3.302,5.571-5.128l0.91,0.549l-1.086,8.97c-3.663,2.927-8.213,5.433-13.644,7.498
				c-5.427,2.077-11.066,3.114-16.923,3.114c-6.597,0-12.586-1.014-18.027-3.024c-5.42-2.006-10.132-4.942-14.087-8.78
				c-3.962-3.845-7.021-8.391-9.151-13.632c-2.136-5.252-3.204-10.917-3.204-17.015c0-15.013,3.568-26.789,10.71-35.329
				c7.138-8.534,17.537-12.808,31.201-12.808c6.462,0,12.041,1.008,16.739,3.02s8.631,4.703,11.807,8.052
				C569.637,263.029,571.989,266.968,573.52,271.479z M560.789,286.115c0-3.289-0.264-6.768-0.819-10.434
				c-0.545-3.651-1.648-7.072-3.279-10.24c-1.656-3.17-3.955-5.797-6.871-7.868c-2.93-2.076-6.776-3.108-11.531-3.108
				c-4.519,0-8.329,1.032-11.442,3.108c-3.107,2.071-5.669,4.662-7.676,7.777c-2.021,3.109-3.547,6.524-4.589,10.248
				c-1.032,3.724-1.675,7.228-1.92,10.517c3.788,0.124,7.722,0.251,11.807,0.37c4.092,0.126,8.083,0.186,11.979,0.186
				c4.034,0,8.119-0.06,12.275-0.186C552.865,286.366,556.892,286.239,560.789,286.115z"/>
		</g>
		<linearGradient id="SVGID_1_" gradientUnits="userSpaceOnUse" x1="91.4385" y1="440.5645" x2="479.3039" y2="167.0264">
			<stop  offset="0" style="stop-color:#009EE0"/>
			<stop  offset="0.25" style="stop-color:#004494"/>
			<stop  offset="0.5" style="stop-color:#572670"/>
			<stop  offset="0.75" style="stop-color:#931869"/>
			<stop  offset="0.9975" style="stop-color:#EE7F00"/>
		</linearGradient>
		<path fill="url(#SVGID_1_)" d="M460.478,345.62c-0.087,2.012-1.797,3.576-3.811,3.479c-2.017-0.095-3.58-1.814-3.486-3.826
			c0.087-2.017,1.805-3.574,3.825-3.473C459.02,341.891,460.571,343.598,460.478,345.62z M453.99,364.54
			c-2.238-0.096-4.136,1.629-4.233,3.868c-0.108,2.227,1.616,4.125,3.857,4.23c2.229,0.109,4.128-1.616,4.236-3.855
			C457.944,366.546,456.227,364.648,453.99,364.54z M447.111,385.771c-2.461-0.12-4.538,1.783-4.647,4.232
			c-0.126,2.464,1.776,4.548,4.229,4.66c2.461,0.113,4.532-1.779,4.651-4.236C451.464,387.968,449.565,385.884,447.111,385.771z
			 M436.734,405.114c-2.663-0.125-4.938,1.944-5.062,4.626c-0.119,2.661,1.934,4.941,4.618,5.066c2.667,0.126,4.94-1.945,5.07-4.624
			C441.483,407.52,439.419,405.238,436.734,405.114z M423.273,422.237c-2.894-0.137-5.348,2.101-5.484,5.002
			c-0.138,2.888,2.102,5.342,4.995,5.479c2.889,0.138,5.348-2.112,5.485-5.001C428.4,424.828,426.169,422.369,423.273,422.237z
			 M407.081,436.777c-3.116-0.144-5.759,2.268-5.901,5.371c-0.149,3.116,2.255,5.753,5.371,5.903
			c3.115,0.155,5.753-2.263,5.896-5.379C412.597,439.558,410.191,436.92,407.081,436.777z M388.538,448.391
			c-3.336-0.155-6.159,2.425-6.32,5.754c-0.155,3.33,2.423,6.166,5.754,6.316c3.328,0.155,6.159-2.431,6.314-5.749
			C394.441,451.375,391.868,448.546,388.538,448.391z M374.16,463.456c0.161-3.546-2.585-6.561-6.131-6.722
			c-3.558-0.167-6.57,2.561-6.732,6.118c-0.166,3.551,2.58,6.571,6.125,6.739C370.978,469.765,373.992,467.006,374.16,463.456z
			 M352.445,468.594c0.173-3.783-2.738-6.982-6.511-7.161c-3.772-0.167-6.972,2.745-7.145,6.517
			c-0.179,3.768,2.732,6.959,6.506,7.15C349.062,475.272,352.267,472.36,352.445,468.594z M329.521,469.729
			c0.185-3.975-2.896-7.378-6.888-7.556c-3.987-0.191-7.378,2.901-7.562,6.881c-0.186,4.006,2.894,7.39,6.881,7.574
			C325.953,476.807,329.336,473.729,329.521,469.729z M306.774,466.722c0.191-4.215-3.062-7.778-7.269-7.98
			c-4.208-0.197-7.783,3.049-7.979,7.274c-0.197,4.196,3.056,7.772,7.263,7.969C302.997,474.187,306.572,470.934,306.774,466.722z
			 M285.552,459.846c0.203-4.43-3.216-8.189-7.651-8.398c-4.429-0.202-8.188,3.217-8.398,7.646
			c-0.203,4.428,3.223,8.182,7.652,8.396C281.583,467.688,285.343,464.272,285.552,459.846z M266.202,449.484
			c0.215-4.649-3.373-8.601-8.021-8.815c-4.651-0.217-8.596,3.377-8.817,8.021c-0.215,4.654,3.372,8.595,8.023,8.82
			C262.042,457.72,265.986,454.134,266.202,449.484z M239.856,444.416c4.866,0.228,8.995-3.532,9.229-8.415
			c0.228-4.858-3.54-8.987-8.409-9.221c-4.866-0.234-8.996,3.538-9.222,8.396C231.22,440.054,234.987,444.184,239.856,444.416z
			 M224.895,428.599c5.091,0.228,9.407-3.692,9.646-8.784c0.237-5.086-3.695-9.394-8.787-9.646
			c-5.084-0.237-9.399,3.701-9.638,8.785C215.875,424.034,219.809,428.35,224.895,428.599z M212.868,410.432
			c5.306,0.252,9.806-3.854,10.056-9.162c0.251-5.304-3.855-9.806-9.161-10.057c-5.306-0.243-9.812,3.855-10.062,9.161
			C203.45,405.693,207.557,410.183,212.868,410.432z M204.106,390.306c5.526,0.258,10.223-4.011,10.48-9.55
			c0.257-5.525-4.018-10.217-9.544-10.479c-5.525-0.252-10.211,4.023-10.475,9.556C194.312,385.358,198.586,390.044,204.106,390.306
			z M198.979,368.587c5.748,0.274,10.623-4.166,10.892-9.914c0.274-5.748-4.171-10.635-9.919-10.897
			c-5.741-0.269-10.618,4.178-10.887,9.92C188.791,363.442,193.236,368.325,198.979,368.587z M197.834,345.674
			c5.968,0.269,11.028-4.344,11.31-10.307c0.274-5.968-4.339-11.023-10.302-11.306c-5.962-0.287-11.03,4.329-11.305,10.297
			C187.258,340.321,191.871,345.387,197.834,345.674z M435.67,444.846c-2.018,0-3.651,1.629-3.651,3.653
			c0,2.018,1.634,3.651,3.651,3.651c2.017,0,3.655-1.634,3.655-3.651C439.325,446.475,437.687,444.846,435.67,444.846z
			 M417.496,460.436c-2.208,0-3.992,1.797-3.992,3.999c0,2.201,1.784,4.004,3.992,4.004c2.209,0,3.993-1.803,3.993-4.004
			C421.489,462.232,419.705,460.436,417.496,460.436z M397.627,472.762c-2.393,0-4.339,1.944-4.339,4.339
			c0,2.393,1.946,4.326,4.339,4.326c2.395,0,4.334-1.934,4.334-4.326C401.961,474.706,400.021,472.762,397.627,472.762z
			 M376.452,481.786c-2.586,0-4.674,2.1-4.674,4.678c0,2.591,2.088,4.691,4.674,4.691c2.583,0,4.68-2.101,4.68-4.691
			C381.132,483.886,379.035,481.786,376.452,481.786z M354.368,487.532c-2.769,0-5.014,2.257-5.014,5.02
			c0,2.764,2.245,5.014,5.014,5.014c2.775,0,5.02-2.25,5.02-5.014C359.388,489.789,357.144,487.532,354.368,487.532z
			 M331.766,489.973c-2.955,0-5.359,2.395-5.359,5.36c0,2.961,2.404,5.36,5.359,5.36c2.959,0,5.358-2.399,5.358-5.36
			C337.124,492.367,334.725,489.973,331.766,489.973z M309.032,489.102c-3.146,0-5.7,2.55-5.7,5.707c0,3.139,2.555,5.693,5.7,5.693
			c3.151,0,5.699-2.555,5.699-5.693C314.731,491.651,312.184,489.102,309.032,489.102z M286.566,484.925
			c-3.336,0-6.041,2.703-6.041,6.041c0,3.336,2.705,6.027,6.041,6.027s6.04-2.691,6.04-6.027
			C292.606,487.628,289.902,484.925,286.566,484.925z M264.752,477.427c-3.527,0-6.387,2.854-6.387,6.381
			c0,3.518,2.859,6.38,6.387,6.38c3.521,0,6.38-2.862,6.38-6.38C271.132,480.281,268.273,477.427,264.752,477.427z M243.98,466.612
			c-3.711,0-6.726,3.01-6.726,6.715c0,3.725,3.015,6.734,6.726,6.734c3.708,0,6.721-3.01,6.721-6.734
			C250.701,469.622,247.688,466.612,243.98,466.612z M224.644,452.486c-3.896,0-7.062,3.149-7.062,7.049
			c0,3.902,3.165,7.067,7.062,7.067c3.902,0,7.067-3.165,7.067-7.067C231.711,455.636,228.546,452.486,224.644,452.486z
			 M214.693,442.566c0-4.088-3.317-7.4-7.4-7.4c-4.088,0-7.413,3.312-7.413,7.4c0,4.095,3.325,7.406,7.413,7.406
			C211.376,449.973,214.693,446.661,214.693,442.566z M200.8,423.551c0-4.274-3.462-7.741-7.742-7.741
			c-4.271,0-7.747,3.467-7.747,7.741c0,4.285,3.476,7.747,7.747,7.747C197.338,431.298,200.8,427.836,200.8,423.551z
			 M182.125,411.113c4.458,0,8.081-3.618,8.081-8.088c0-4.464-3.623-8.094-8.081-8.094c-4.471,0-8.094,3.63-8.094,8.094
			C174.031,407.495,177.654,411.113,182.125,411.113z M174.479,389.799c4.655,0,8.428-3.771,8.428-8.433
			c0-4.649-3.772-8.422-8.428-8.422c-4.654,0-8.427,3.772-8.427,8.422C166.052,386.027,169.824,389.799,174.479,389.799z
			 M170.135,367.763c4.846,0,8.766-3.926,8.766-8.767c0-4.846-3.92-8.773-8.766-8.773c-4.841,0-8.769,3.928-8.769,8.773
			C161.366,363.837,165.294,367.763,170.135,367.763z M169.101,345.387c5.032,0,9.109-4.07,9.109-9.107
			c0-5.031-4.077-9.114-9.109-9.114s-9.107,4.083-9.107,9.114C159.993,341.316,164.068,345.387,169.101,345.387z M161.922,313.618
			c0,5.215,4.226,9.453,9.446,9.453c5.224,0,9.454-4.238,9.454-9.453c0-5.224-4.23-9.454-9.454-9.454
			C166.147,304.164,161.922,308.395,161.922,313.618z M186.743,291.403c0-5.407-4.386-9.795-9.793-9.795
			c-5.408,0-9.789,4.388-9.789,9.795s4.381,9.795,9.789,9.795C182.357,301.198,186.743,296.811,186.743,291.403z M195.978,270.023
			c0-5.593-4.536-10.134-10.134-10.134c-5.594,0-10.129,4.541-10.129,10.134c0,5.599,4.535,10.135,10.129,10.135
			C191.441,280.158,195.978,275.622,195.978,270.023z M208.534,249.875c0-5.784-4.69-10.476-10.475-10.476
			c-5.782,0-10.474,4.691-10.474,10.476c0,5.782,4.691,10.475,10.474,10.475C203.844,260.35,208.534,255.657,208.534,249.875z
			 M224.411,231.343c0-5.974-4.841-10.809-10.814-10.809c-5.97,0-10.815,4.835-10.815,10.809c0,5.976,4.846,10.821,10.815,10.821
			C219.57,242.164,224.411,237.318,224.411,231.343z M347.821,516.007c-2.019,0-3.653,1.637-3.653,3.653
			c0,2.022,1.635,3.654,3.653,3.654c2.018,0,3.651-1.632,3.651-3.654C351.473,517.644,349.839,516.007,347.821,516.007z
			 M324.037,517.261c-2.18,0-3.94,1.756-3.94,3.928c0,2.185,1.761,3.934,3.94,3.934c2.178,0,3.938-1.749,3.938-3.934
			C327.976,519.017,326.215,517.261,324.037,517.261z M300.796,515.472c-2.335,0-4.226,1.897-4.226,4.23
			c0,2.335,1.891,4.226,4.226,4.226c2.333,0,4.23-1.891,4.23-4.226C305.026,517.369,303.129,515.472,300.796,515.472z
			 M278.312,510.846c-2.49,0-4.513,2.017-4.513,4.512c0,2.488,2.022,4.518,4.513,4.518c2.487,0,4.512-2.029,4.512-4.518
			C282.824,512.862,280.8,510.846,278.312,510.846z M256.801,503.528c-2.65,0-4.797,2.143-4.797,4.805
			c0,2.637,2.146,4.799,4.797,4.799s4.8-2.162,4.8-4.799C261.601,505.671,259.451,503.528,256.801,503.528z M236.484,493.686
			c-2.811,0-5.092,2.269-5.092,5.085c0,2.806,2.281,5.08,5.092,5.08c2.806,0,5.086-2.274,5.086-5.08
			C241.57,495.954,239.29,493.686,236.484,493.686z M222.937,486.847c0-2.961-2.404-5.36-5.371-5.36
			c-2.968,0-5.372,2.399-5.372,5.36c0,2.972,2.404,5.371,5.372,5.371C220.532,492.218,222.937,489.818,222.937,486.847z
			 M205.927,472.736c0-3.114-2.531-5.658-5.665-5.658c-3.121,0-5.652,2.544-5.652,5.658c0,3.128,2.531,5.657,5.652,5.657
			C203.396,478.394,205.927,475.864,205.927,472.736z M184.804,450.647c-3.281,0-5.944,2.674-5.944,5.95
			c0,3.284,2.663,5.939,5.944,5.939c3.282,0,5.945-2.655,5.945-5.939C190.749,453.321,188.086,450.647,184.804,450.647z
			 M171.387,432.36c-3.442,0-6.225,2.793-6.225,6.23c0,3.449,2.782,6.231,6.225,6.231c3.444,0,6.231-2.782,6.231-6.231
			C177.618,435.153,174.831,432.36,171.387,432.36z M166.761,418.896c0-3.607-2.923-6.519-6.522-6.519
			c-3.599,0-6.519,2.911-6.519,6.519c0,3.592,2.92,6.517,6.519,6.517C163.838,425.413,166.761,422.488,166.761,418.896z
			 M158.369,397.642c0-3.747-3.043-6.799-6.798-6.799c-3.76,0-6.804,3.052-6.804,6.799c0,3.76,3.044,6.811,6.804,6.811
			C155.326,404.452,158.369,401.401,158.369,397.642z M145.598,382.123c3.909,0,7.091-3.175,7.091-7.095
			c0-3.91-3.182-7.093-7.091-7.093c-3.922,0-7.091,3.183-7.091,7.093C138.507,378.948,141.676,382.123,145.598,382.123z
			 M142.547,358.773c4.07,0,7.377-3.312,7.377-7.388c0-4.07-3.307-7.371-7.377-7.371c-4.076,0-7.383,3.301-7.383,7.371
			C135.164,355.462,138.471,358.773,142.547,358.773z M142.588,335.665c4.228,0,7.659-3.432,7.659-7.663
			c0-4.237-3.432-7.664-7.659-7.664c-4.23,0-7.662,3.427-7.662,7.664C134.926,332.233,138.357,335.665,142.588,335.665z
			 M145.585,297.306c-4.393,0-7.956,3.557-7.956,7.95c0,4.388,3.563,7.95,7.956,7.95c4.388,0,7.951-3.562,7.951-7.95
			C153.536,300.862,149.973,297.306,145.585,297.306z M159.6,283.364c0-4.555-3.689-8.244-8.23-8.244
			c-4.554,0-8.243,3.689-8.243,8.244c0,4.548,3.689,8.235,8.243,8.235C155.91,291.6,159.6,287.912,159.6,283.364z M168.296,262.54
			c0-4.709-3.821-8.523-8.522-8.523c-4.711,0-8.525,3.814-8.525,8.523s3.814,8.523,8.525,8.523
			C164.475,271.063,168.296,267.249,168.296,262.54z M161.819,243.005c0,4.858,3.951,8.81,8.81,8.81c4.871,0,8.81-3.951,8.81-8.81
			c0-4.87-3.938-8.815-8.81-8.815C165.771,234.189,161.819,238.135,161.819,243.005z M174.688,224.963
			c0,5.02,4.069,9.095,9.095,9.095c5.026,0,9.097-4.075,9.097-9.095c0-5.026-4.07-9.097-9.097-9.097
			C178.758,215.866,174.688,219.937,174.688,224.963z M199.057,199.25c-5.182,0-9.383,4.202-9.383,9.382
			c0,5.182,4.201,9.389,9.383,9.389c5.18,0,9.382-4.207,9.382-9.389C208.438,203.452,204.236,199.25,199.057,199.25z
			 M216.289,203.904c5.34,0,9.668-4.331,9.668-9.668c0-5.348-4.328-9.669-9.668-9.669c-5.343,0-9.671,4.321-9.671,9.669
			C206.618,199.573,210.946,203.904,216.289,203.904z M225.354,181.972c0,5.497,4.458,9.955,9.955,9.955
			c5.496,0,9.956-4.458,9.956-9.955c0-5.503-4.46-9.961-9.956-9.961C229.812,172.011,225.354,176.469,225.354,181.972z
			 M266.19,172.063c0-5.658-4.585-10.248-10.235-10.248c-5.66,0-10.249,4.59-10.249,10.248c0,5.651,4.589,10.241,10.249,10.241
			C261.605,182.305,266.19,177.715,266.19,172.063z M278.056,175.256c5.813,0,10.527-4.713,10.527-10.534
			c0-5.818-4.714-10.527-10.527-10.527c-5.812,0-10.528,4.709-10.528,10.527C267.527,170.543,272.243,175.256,278.056,175.256z
			 M301.445,170.984c5.976,0,10.816-4.841,10.816-10.821c0-5.969-4.841-10.814-10.816-10.814c-5.969,0-10.809,4.846-10.809,10.814
			C290.637,166.144,295.477,170.984,301.445,170.984z M224.769,517.775c-2.018,0-3.652,1.64-3.652,3.651
			c0,2.024,1.635,3.666,3.652,3.666c2.019,0,3.653-1.642,3.653-3.666C228.422,519.415,226.787,517.775,224.769,517.775z
			 M203.354,504.023c-2.161,0-3.915,1.755-3.915,3.921c0,2.18,1.754,3.922,3.915,3.922c2.167,0,3.921-1.742,3.921-3.922
			C207.275,505.778,205.521,504.023,203.354,504.023z M184.118,488.184c-2.311,0-4.184,1.874-4.184,4.184s1.873,4.189,4.184,4.189
			c2.31,0,4.184-1.88,4.184-4.189S186.428,488.184,184.118,488.184z M167.119,470.48c-2.453,0-4.447,1.989-4.447,4.44
			c0,2.459,1.994,4.453,4.447,4.453c2.465,0,4.453-1.994,4.453-4.453C171.572,472.47,169.584,470.48,167.119,470.48z
			 M152.438,451.155c-2.604,0-4.715,2.117-4.715,4.721c0,2.597,2.111,4.709,4.715,4.709c2.602,0,4.714-2.112,4.714-4.709
			C157.151,453.272,155.039,451.155,152.438,451.155z M140.137,430.45c-2.752,0-4.985,2.239-4.985,4.982
			c0,2.741,2.233,4.979,4.985,4.979c2.744,0,4.978-2.237,4.978-4.979C145.114,432.689,142.881,430.45,140.137,430.45z
			 M130.276,408.605c-2.896,0-5.24,2.34-5.24,5.241c0,2.898,2.345,5.246,5.24,5.246c2.901,0,5.247-2.348,5.247-5.246
			C135.523,410.945,133.178,408.605,130.276,408.605z M128.456,391.345c0-3.044-2.466-5.516-5.51-5.516s-5.508,2.472-5.508,5.516
			c0,3.051,2.464,5.516,5.508,5.516S128.456,394.396,128.456,391.345z M112.43,368.163c0,3.188,2.58,5.777,5.771,5.777
			c3.193,0,5.779-2.59,5.779-5.777c0-3.193-2.586-5.777-5.779-5.777C115.01,362.386,112.43,364.97,112.43,368.163z M116.119,350.592
			c3.336,0,6.041-2.704,6.041-6.045c0-3.331-2.705-6.041-6.041-6.041s-6.046,2.71-6.046,6.041
			C110.073,347.888,112.783,350.592,116.119,350.592z M116.769,327.035c3.476,0,6.299-2.823,6.299-6.304
			c0-3.485-2.823-6.308-6.299-6.308c-3.485,0-6.307,2.822-6.307,6.308C110.462,324.212,113.283,327.035,116.769,327.035z
			 M126.778,296.947c0-3.633-2.942-6.576-6.57-6.576c-3.629,0-6.571,2.943-6.571,6.576c0,3.63,2.942,6.572,6.571,6.572
			C123.836,303.52,126.778,300.577,126.778,296.947z M133.356,273.427c0-3.773-3.057-6.835-6.829-6.835
			c-3.783,0-6.845,3.062-6.845,6.835c0,3.777,3.062,6.839,6.845,6.839C130.3,280.266,133.356,277.204,133.356,273.427z
			 M142.875,250.424c0-3.928-3.181-7.109-7.103-7.109c-3.921,0-7.096,3.182-7.096,7.109c0,3.922,3.175,7.097,7.096,7.097
			C139.694,257.521,142.875,254.346,142.875,250.424z M147.943,235.663c4.069,0,7.364-3.288,7.364-7.358s-3.295-7.371-7.364-7.371
			c-4.07,0-7.365,3.301-7.365,7.371S143.873,235.663,147.943,235.663z M154.795,208.166c0,4.22,3.414,7.636,7.634,7.636
			c4.213,0,7.626-3.416,7.626-7.636c0-4.213-3.413-7.633-7.626-7.633C158.209,200.533,154.795,203.953,154.795,208.166z
			 M178.906,182.347c-4.355,0-7.896,3.54-7.896,7.902c0,4.364,3.54,7.902,7.896,7.902c4.364,0,7.896-3.538,7.896-7.902
			C186.803,185.887,183.271,182.347,178.906,182.347z M197.153,166.446c-4.507,0-8.16,3.654-8.16,8.16
			c0,4.505,3.653,8.164,8.16,8.164c4.511,0,8.164-3.659,8.164-8.164C205.317,170.101,201.664,166.446,197.153,166.446z
			 M216.933,152.887c-4.656,0-8.435,3.772-8.435,8.427c0,4.657,3.778,8.43,8.435,8.43c4.649,0,8.422-3.772,8.422-8.43
			C225.354,156.659,221.582,152.887,216.933,152.887z M246.686,150.428c0-4.798-3.892-8.696-8.696-8.696
			c-4.799,0-8.69,3.898-8.69,8.696c0,4.804,3.892,8.696,8.69,8.696C242.794,159.124,246.686,155.231,246.686,150.428z
			 M269.067,142.036c0-4.954-4.012-8.965-8.959-8.965s-8.96,4.011-8.96,8.965c0,4.941,4.013,8.952,8.96,8.952
			S269.067,146.978,269.067,142.036z M292.261,136.182c0-5.097-4.125-9.229-9.222-9.229c-5.092,0-9.221,4.132-9.221,9.229
			c0,5.091,4.129,9.227,9.221,9.227C288.136,145.408,292.261,141.272,292.261,136.182z M297.06,132.947
			c0,5.239,4.248,9.489,9.489,9.489c5.24,0,9.49-4.25,9.49-9.489c0-5.241-4.25-9.49-9.49-9.49
			C301.308,123.457,297.06,127.706,297.06,132.947z M330.406,122.645c-5.392,0-9.76,4.363-9.76,9.752
			c0,5.391,4.368,9.753,9.76,9.753c5.382,0,9.751-4.362,9.751-9.753C340.157,127.008,335.788,122.645,330.406,122.645z
			 M354.361,124.579c-5.531,0-10.015,4.488-10.015,10.021c0,5.533,4.483,10.015,10.015,10.015c5.533,0,10.022-4.481,10.022-10.015
			C364.384,129.067,359.895,124.579,354.361,124.579z M367.905,139.618c0,5.685,4.606,10.291,10.282,10.291
			c5.683,0,10.283-4.606,10.283-10.291c0-5.676-4.601-10.283-10.283-10.283C372.512,129.335,367.905,133.942,367.905,139.618z
			 M391.104,147.528c0,5.831,4.722,10.551,10.542,10.551c5.831,0,10.55-4.72,10.55-10.551c0-5.82-4.719-10.548-10.55-10.548
			C395.825,136.98,391.104,141.708,391.104,147.528z M413.688,158.396c0,5.974,4.849,10.819,10.816,10.819
			s10.809-4.846,10.809-10.819c0-5.976-4.841-10.821-10.809-10.821S413.688,152.421,413.688,158.396z M141.067,479.958
			c-2.017,0-3.653,1.637-3.653,3.654c0,2.017,1.637,3.651,3.653,3.651c2.018,0,3.653-1.635,3.653-3.651
			C144.721,481.595,143.085,479.958,141.067,479.958z M126.761,459.367c-2.149,0-3.885,1.743-3.885,3.887
			c0,2.148,1.735,3.884,3.885,3.884c2.143,0,3.886-1.735,3.886-3.884C130.646,461.11,128.903,459.367,126.761,459.367z
			 M114.86,437.84c-2.269,0-4.113,1.85-4.113,4.117c0,2.274,1.845,4.119,4.113,4.119c2.273,0,4.124-1.845,4.124-4.119
			C118.984,439.689,117.134,437.84,114.86,437.84z M105.353,415.565c-2.4,0-4.34,1.945-4.34,4.345c0,2.405,1.939,4.345,4.34,4.345
			c2.404,0,4.35-1.939,4.35-4.345C109.702,417.511,107.757,415.565,105.353,415.565z M102.792,397.284
			c0-2.531-2.048-4.584-4.579-4.584c-2.524,0-4.577,2.053-4.577,4.584c0,2.524,2.053,4.572,4.577,4.572
			C100.744,401.856,102.792,399.809,102.792,397.284z M98.231,374.25c0-2.648-2.154-4.81-4.811-4.81c-2.655,0-4.81,2.161-4.81,4.81
			c0,2.658,2.154,4.807,4.81,4.807C96.077,379.057,98.231,376.908,98.231,374.25z M95.994,351.009c0-2.78-2.257-5.037-5.037-5.037
			c-2.782,0-5.038,2.257-5.038,5.037c0,2.782,2.256,5.039,5.038,5.039C93.737,356.048,95.994,353.791,95.994,351.009z
			 M90.794,333.009c2.907,0,5.271-2.357,5.271-5.27c0-2.907-2.363-5.271-5.271-5.271c-2.911,0-5.275,2.363-5.275,5.271
			C85.519,330.651,87.883,333.009,90.794,333.009z M92.914,299.119c-3.043,0-5.505,2.467-5.505,5.51
			c0,3.039,2.462,5.498,5.505,5.498c3.036,0,5.503-2.459,5.503-5.498C98.417,301.586,95.95,299.119,92.914,299.119z M91.56,281.841
			c0,3.165,2.572,5.73,5.735,5.73c3.162,0,5.735-2.565,5.735-5.73c0-3.163-2.573-5.735-5.735-5.735
			C94.132,276.105,91.56,278.678,91.56,281.841z M103.914,253.604c-3.289,0-5.963,2.681-5.963,5.97c0,3.294,2.674,5.961,5.963,5.961
			c3.295,0,5.961-2.667,5.961-5.961C109.875,256.285,107.209,253.604,103.914,253.604z M118.954,238.003
			c0-3.42-2.77-6.195-6.196-6.195c-3.419,0-6.195,2.775-6.195,6.195c0,3.421,2.776,6.196,6.195,6.196
			C116.185,244.199,118.954,241.424,118.954,238.003z M117.373,217.312c0,3.55,2.876,6.427,6.427,6.427
			c3.545,0,6.428-2.877,6.428-6.427c0-3.553-2.883-6.423-6.428-6.423C120.249,210.889,117.373,213.759,117.373,217.312z
			 M130.359,197.686c0,3.672,2.979,6.655,6.656,6.655c3.682,0,6.659-2.983,6.659-6.655c0-3.683-2.978-6.661-6.659-6.661
			C133.338,191.024,130.359,194.003,130.359,197.686z M152.389,186.185c3.809,0,6.888-3.086,6.888-6.887
			c0-3.809-3.079-6.895-6.888-6.895c-3.807,0-6.887,3.086-6.887,6.895C145.502,183.099,148.582,186.185,152.389,186.185z
			 M169.899,169.456c3.928,0,7.116-3.193,7.116-7.121c0-3.933-3.188-7.121-7.116-7.121c-3.933,0-7.119,3.188-7.119,7.121
			C162.78,166.263,165.967,169.456,169.899,169.456z M189.394,154.42c4.065,0,7.354-3.287,7.354-7.346
			c0-4.065-3.289-7.348-7.354-7.348c-4.059,0-7.347,3.282-7.347,7.348C182.047,151.133,185.335,154.42,189.394,154.42z
			 M210.062,141.726c4.191,0,7.579-3.39,7.579-7.579c0-4.184-3.388-7.581-7.579-7.581c-4.184,0-7.579,3.397-7.579,7.581
			C202.483,138.336,205.879,141.726,210.062,141.726z M231.603,131.454c4.315,0,7.813-3.498,7.813-7.813
			c0-4.321-3.498-7.817-7.813-7.817s-7.812,3.496-7.812,7.817C223.79,127.956,227.287,131.454,231.603,131.454z M245.783,115.519
			c0,4.44,3.611,8.045,8.047,8.045c4.445,0,8.044-3.604,8.044-8.045c0-4.439-3.599-8.039-8.044-8.039
			C249.395,107.479,245.783,111.079,245.783,115.519z M268.292,109.771c0,4.571,3.711,8.272,8.277,8.272s8.272-3.701,8.272-8.272
			c0-4.572-3.706-8.277-8.272-8.277S268.292,105.198,268.292,109.771z M291.125,106.369c0,4.691,3.809,8.505,8.507,8.505
			c4.696,0,8.505-3.813,8.505-8.505c0-4.703-3.809-8.512-8.505-8.512C294.934,97.857,291.125,101.666,291.125,106.369z
			 M322.837,114.021c4.828,0,8.738-3.91,8.738-8.74c0-4.82-3.91-8.737-8.738-8.737c-4.822,0-8.731,3.917-8.731,8.737
			C314.105,110.111,318.015,114.021,322.837,114.021z M346.007,115.464c4.946,0,8.965-4.011,8.965-8.965
			c0-4.952-4.019-8.97-8.965-8.97c-4.955,0-8.966,4.018-8.966,8.97C337.041,111.453,341.052,115.464,346.007,115.464z
			 M368.955,119.188c5.079,0,9.198-4.117,9.198-9.196c0-5.08-4.119-9.204-9.198-9.204c-5.078,0-9.192,4.124-9.192,9.204
			C359.763,115.071,363.877,119.188,368.955,119.188z M391.51,125.169c5.204,0,9.43-4.226,9.43-9.436
			c0-5.205-4.226-9.431-9.43-9.431c-5.211,0-9.429,4.226-9.429,9.431C382.081,120.943,386.299,125.169,391.51,125.169z
			 M423.131,123.713c0-5.342-4.321-9.663-9.657-9.663c-5.335,0-9.656,4.321-9.656,9.663c0,5.33,4.321,9.658,9.656,9.658
			C418.81,133.371,423.131,129.043,423.131,123.713z M434.67,124c-5.457,0-9.879,4.43-9.879,9.889c0,5.461,4.422,9.896,9.879,9.896
			c5.471,0,9.895-4.435,9.895-9.896C444.564,128.43,440.141,124,434.67,124z M454.936,136.127c-5.598,0-10.126,4.544-10.126,10.129
			c0,5.586,4.528,10.123,10.126,10.123c5.585,0,10.11-4.537,10.11-10.123C465.046,140.671,460.521,136.127,454.936,136.127z
			 M484.407,160.783c0-5.717-4.636-10.355-10.348-10.355c-5.716,0-10.363,4.639-10.363,10.355c0,5.712,4.647,10.349,10.363,10.349
			C479.771,171.132,484.407,166.495,484.407,160.783z M502.457,177.44c0-5.849-4.734-10.588-10.58-10.588
			s-10.583,4.739-10.583,10.588c0,5.85,4.737,10.582,10.583,10.582S502.457,183.29,502.457,177.44z M508.201,185.403
			c-5.968,0-10.818,4.84-10.818,10.816c0,5.973,4.851,10.813,10.818,10.813s10.811-4.841,10.811-10.813
			C519.012,190.243,514.169,185.403,508.201,185.403z M74.399,403.317c-2.017,0-3.653,1.642-3.653,3.653
			c0,2.022,1.637,3.651,3.653,3.651c2.018,0,3.652-1.629,3.652-3.651C78.052,404.959,76.417,403.317,74.399,403.317z
			 M72.502,379.893c0-2.145-1.737-3.887-3.881-3.887c-2.146,0-3.89,1.742-3.89,3.887c0,2.147,1.743,3.891,3.89,3.891
			C70.765,383.783,72.502,382.04,72.502,379.893z M69.828,352.907c0-2.273-1.846-4.117-4.113-4.117
			c-2.273,0-4.117,1.844-4.117,4.117c0,2.274,1.844,4.118,4.117,4.118C67.982,357.025,69.828,355.182,69.828,352.907z
			 M65.577,330.531c2.4,0,4.347-1.944,4.347-4.35c0-2.399-1.946-4.346-4.347-4.346c-2.399,0-4.344,1.946-4.344,4.346
			C61.233,328.587,63.178,330.531,65.577,330.531z M68.121,304.485c2.529,0,4.577-2.054,4.577-4.577
			c0-2.531-2.048-4.585-4.577-4.585c-2.531,0-4.579,2.054-4.579,4.585C63.542,302.432,65.59,304.485,68.121,304.485z
			 M73.236,279.054c2.648,0,4.805-2.148,4.805-4.811c0-2.655-2.156-4.804-4.805-4.804c-2.656,0-4.817,2.148-4.817,4.804
			C68.419,276.905,70.58,279.054,73.236,279.054z M80.815,244.342c-2.787,0-5.043,2.257-5.043,5.044c0,2.78,2.256,5.037,5.043,5.037
			c2.782,0,5.037-2.257,5.037-5.037C85.853,246.599,83.598,244.342,80.815,244.342z M90.766,230.764c2.912,0,5.27-2.358,5.27-5.271
			s-2.357-5.275-5.27-5.275c-2.906,0-5.271,2.363-5.271,5.275S87.859,230.764,90.766,230.764z M102.988,208.257
			c3.039,0,5.503-2.46,5.503-5.504c0-3.032-2.464-5.496-5.503-5.496c-3.038,0-5.502,2.464-5.502,5.496
			C97.486,205.797,99.95,208.257,102.988,208.257z M117.379,187.081c3.168,0,5.735-2.572,5.735-5.735
			c0-3.164-2.567-5.737-5.735-5.737c-3.17,0-5.73,2.573-5.73,5.737C111.648,184.509,114.209,187.081,117.379,187.081z
			 M133.833,167.402c3.296,0,5.97-2.673,5.97-5.968c0-3.289-2.674-5.963-5.97-5.963c-3.287,0-5.963,2.674-5.963,5.963
			C127.87,164.729,130.546,167.402,133.833,167.402z M152.259,149.408c3.419,0,6.195-2.776,6.195-6.19c0-3.426-2.776-6.2-6.195-6.2
			c-3.421,0-6.195,2.774-6.195,6.2C146.063,146.632,148.838,149.408,152.259,149.408z M172.55,133.275
			c3.553,0,6.429-2.878,6.429-6.429c0-3.552-2.876-6.428-6.429-6.428c-3.551,0-6.428,2.876-6.428,6.428
			C166.122,130.397,168.999,133.275,172.55,133.275z M194.604,119.177c3.677,0,6.655-2.979,6.655-6.66
			c0-3.678-2.979-6.656-6.655-6.656s-6.656,2.979-6.656,6.656C187.948,116.198,190.928,119.177,194.604,119.177z M218.323,107.288
			c3.808,0,6.887-3.08,6.887-6.889c0-3.807-3.079-6.886-6.887-6.886c-3.803,0-6.888,3.079-6.888,6.886
			C211.436,104.208,214.521,107.288,218.323,107.288z M243.605,97.792c3.933,0,7.121-3.188,7.121-7.115
			c0-3.938-3.188-7.124-7.121-7.124c-3.928,0-7.121,3.186-7.121,7.124C236.484,94.604,239.678,97.792,243.605,97.792z
			 M270.189,90.899c4.058,0,7.347-3.289,7.347-7.354c0-4.052-3.289-7.346-7.347-7.346c-4.06,0-7.354,3.294-7.354,7.346
			C262.836,87.61,266.13,90.899,270.189,90.899z M296.945,86.917c4.189,0,7.58-3.39,7.58-7.579s-3.391-7.587-7.58-7.587
			c-4.184,0-7.579,3.397-7.579,7.587S292.762,86.917,296.945,86.917z M323.541,85.784c4.315,0,7.812-3.504,7.812-7.819
			c0-4.309-3.496-7.807-7.812-7.807c-4.309,0-7.807,3.498-7.807,7.807C315.734,82.28,319.232,85.784,323.541,85.784z
			 M349.808,87.396c4.447,0,8.047-3.605,8.047-8.045c0-4.447-3.6-8.047-8.047-8.047c-4.44,0-8.039,3.6-8.039,8.047
			C341.769,83.79,345.367,87.396,349.808,87.396z M375.562,91.651c4.566,0,8.271-3.708,8.271-8.272c0-4.566-3.705-8.274-8.271-8.274
			s-8.272,3.708-8.272,8.274C367.29,87.943,370.996,91.651,375.562,91.651z M400.629,98.455c4.704,0,8.505-3.809,8.505-8.505
			c0-4.698-3.801-8.505-8.505-8.505c-4.69,0-8.504,3.807-8.504,8.505C392.125,94.646,395.938,98.455,400.629,98.455z
			 M424.843,107.699c4.817,0,8.728-3.915,8.728-8.743c0-4.822-3.91-8.732-8.728-8.732c-4.833,0-8.743,3.91-8.743,8.732
			C416.1,103.784,420.01,107.699,424.843,107.699z M447.999,119.273c4.958,0,8.968-4.011,8.968-8.966c0-4.959-4.01-8.97-8.968-8.97
			c-4.95,0-8.963,4.011-8.963,8.97C439.036,115.263,443.049,119.273,447.999,119.273z M469.953,133.084
			c5.088,0,9.193-4.112,9.193-9.198c0-5.078-4.105-9.191-9.193-9.191c-5.085,0-9.19,4.113-9.19,9.191
			C460.763,128.972,464.868,133.084,469.953,133.084z M490.521,149.031c5.203,0,9.433-4.226,9.433-9.431
			c0-5.203-4.229-9.429-9.433-9.429c-5.211,0-9.433,4.226-9.433,9.429C481.088,144.806,485.31,149.031,490.521,149.031z
			 M509.521,167.008c5.333,0,9.66-4.332,9.66-9.661c0-5.337-4.327-9.671-9.66-9.671c-5.347,0-9.659,4.334-9.659,9.671
			C499.862,162.676,504.175,167.008,509.521,167.008z M536.671,177.006c0-5.461-4.432-9.89-9.895-9.89
			c-5.459,0-9.894,4.429-9.894,9.89c0,5.468,4.435,9.896,9.894,9.896C532.239,186.902,536.671,182.474,536.671,177.006z
			 M552.237,198.492c0-5.586-4.539-10.115-10.125-10.115s-10.118,4.529-10.118,10.115c0,5.593,4.532,10.129,10.118,10.129
			S552.237,204.085,552.237,198.492z M565.718,221.703c0-5.713-4.64-10.354-10.356-10.354c-5.715,0-10.348,4.642-10.348,10.354
			c0,5.719,4.633,10.355,10.348,10.355C561.078,232.059,565.718,227.422,565.718,221.703z"/>
	</g>
	<g>
		<path d="M483.799,414.643c1.839-0.396,4.404-0.659,7.066-0.659c3.146,0,6.146,0.704,7.986,2.288
			c1.549,1.32,2.371,3.036,2.371,5.368c0,3.345-1.79,6.117-3.92,7.745c-2.517,1.937-6.195,2.816-9.874,2.816
			c-1.21,0-2.323-0.088-3.34-0.22l-2.468,11.882h-3.97L483.799,414.643z M484.719,428.902c1.161,0.22,2.081,0.308,3.242,0.308
			c5.518,0,9.196-3.124,9.196-7.305c0-3.521-2.759-4.929-6.485-4.929c-1.598,0-2.808,0.132-3.533,0.308L484.719,428.902z"/>
		<path d="M516.567,443.864c0-1.276,0.242-3.301,0.532-5.501h-0.097c-2.564,4.4-5.76,5.985-9.099,5.985
			c-4.114,0-6.729-2.993-6.729-7.041c0-7.394,6.002-15.227,16.215-15.227c2.227,0,4.694,0.353,6.292,0.836l-2.372,11.09
			c-0.774,3.696-1.113,7.481-1.016,9.857H516.567z M519.182,425.293c-0.581-0.133-1.452-0.309-2.808-0.309
			c-6.05,0-10.987,5.765-11.035,11.662c0,2.376,0.919,4.708,4.017,4.708c3.34,0,7.309-3.96,8.471-9.637L519.182,425.293z"/>
		<path d="M526.298,443.864l2.855-13.73c0.581-2.771,0.968-5.588,1.21-7.568h3.533c-0.193,1.496-0.387,2.992-0.629,4.62h0.145
			c1.501-2.904,4.018-5.104,7.164-5.104c0.339,0,0.822,0.044,1.113,0.088l-0.774,3.608c-0.242-0.044-0.63-0.088-1.065-0.088
			c-3.484,0-6.582,3.829-7.599,8.802l-1.937,9.373H526.298z"/>
		<path d="M553.451,416.844l-1.21,5.721h5.614l-0.629,2.86h-5.615l-2.178,10.341c-0.242,1.188-0.436,2.289-0.436,3.433
			c0,1.276,0.678,2.024,2.227,2.024c0.678,0,1.355-0.044,1.888-0.132l-0.193,2.86c-0.727,0.264-1.937,0.396-3.098,0.396
			c-3.582,0-4.938-1.98-4.938-4.137c0-1.232,0.146-2.465,0.484-4.005l2.323-10.781h-3.389l0.63-2.86h3.34l1.016-4.797
			L553.451,416.844z"/>
		<path d="M558.098,443.864l3.146-15.094c0.532-2.377,0.823-4.445,1.113-6.205h3.582l-0.581,4.181h0.097
			c2.081-2.993,5.228-4.665,8.664-4.665c2.808,0,5.953,1.452,5.953,5.941c0,0.924-0.193,2.288-0.436,3.432l-2.613,12.41h-4.018
			l2.565-12.277c0.193-0.837,0.339-1.849,0.339-2.729c0-2.156-0.92-3.741-3.679-3.741c-2.855,0-6.921,3.125-7.986,8.405
			l-2.13,10.342H558.098z"/>
		<path d="M600.838,442.631c-1.742,0.925-4.598,1.673-7.744,1.673c-6.195,0-8.905-3.829-8.905-8.538
			c0-6.425,5.227-13.686,12.777-13.686c4.453,0,6.873,2.42,6.873,5.457c0,5.589-6.921,7.085-15.585,6.953
			c-0.193,0.924-0.049,2.904,0.483,4.048c0.92,1.893,2.808,2.86,5.228,2.86c2.759,0,4.84-0.792,6.292-1.496L600.838,442.631z
			 M596.385,424.941c-3.823,0-6.679,3.389-7.647,6.733c6.293,0.044,11.229-0.704,11.229-4.005
			C599.967,425.909,598.515,424.941,596.385,424.941z"/>
		<path d="M605.873,443.864l2.855-13.73c0.581-2.771,0.968-5.588,1.21-7.568h3.533c-0.193,1.496-0.387,2.992-0.629,4.62h0.145
			c1.501-2.904,4.018-5.104,7.164-5.104c0.339,0,0.822,0.044,1.113,0.088l-0.774,3.608c-0.242-0.044-0.63-0.088-1.065-0.088
			c-3.484,0-6.582,3.829-7.599,8.802l-1.937,9.373H605.873z"/>
		<path d="M621.459,440.167c1.113,0.616,3.146,1.32,5.033,1.32c2.711,0,4.453-1.585,4.453-3.477c0-1.673-0.822-2.685-3.242-3.917
			c-2.711-1.364-4.211-3.256-4.211-5.413c0-3.74,3.533-6.601,8.47-6.601c2.13,0,4.018,0.528,4.889,1.057l-1.113,2.771
			c-0.823-0.439-2.323-0.968-4.065-0.968c-2.42,0-4.163,1.364-4.163,3.213c0,1.54,1.113,2.508,3.194,3.564
			c2.614,1.364,4.405,3.212,4.405,5.589c0,4.488-4.018,6.997-8.954,6.997c-2.518,0-4.744-0.704-5.809-1.452L621.459,440.167z"/>
		<path d="M648.129,443.864l4.501-21.299h4.018l-4.502,21.299H648.129z M653.355,416.624c0-1.408,1.211-2.464,2.662-2.464
			c1.452,0,2.372,0.968,2.372,2.288c-0.049,1.452-1.161,2.465-2.71,2.465C654.275,418.913,653.355,417.944,653.355,416.624z"/>
		<path d="M659.213,443.864l3.146-15.094c0.532-2.377,0.823-4.445,1.113-6.205h3.582l-0.581,4.181h0.097
			c2.081-2.993,5.228-4.665,8.664-4.665c2.808,0,5.953,1.452,5.953,5.941c0,0.924-0.193,2.288-0.436,3.432l-2.613,12.41h-4.018
			l2.565-12.277c0.193-0.837,0.339-1.849,0.339-2.729c0-2.156-0.92-3.741-3.679-3.741c-2.855,0-6.921,3.125-7.986,8.405
			l-2.13,10.342H659.213z"/>
		<path d="M502.433,465.424l-5.13,24.511c-0.484,2.201-0.871,4.665-1.017,6.733h-3.679l0.63-4.225h-0.098
			c-2.129,3.036-5.082,4.709-8.421,4.709c-4.55,0-7.019-3.389-7.019-7.745c0-7.569,6.195-14.522,14.472-14.522
			c1.501,0,3.146,0.309,4.163,0.748l2.081-10.209H502.433z M495.705,478.713c-0.822-0.483-2.178-0.88-3.872-0.88
			c-5.614,0-9.971,5.413-9.971,11.09c0,2.553,0.969,5.236,4.405,5.236c3.098,0,6.824-3.212,7.841-8.009L495.705,478.713z"/>
		<path d="M519.811,495.436c-1.742,0.925-4.598,1.673-7.744,1.673c-6.195,0-8.905-3.829-8.905-8.538
			c0-6.425,5.227-13.686,12.777-13.686c4.453,0,6.873,2.42,6.873,5.457c0,5.589-6.921,7.085-15.585,6.953
			c-0.193,0.924-0.049,2.904,0.483,4.048c0.92,1.893,2.808,2.86,5.228,2.86c2.759,0,4.84-0.792,6.292-1.496L519.811,495.436z
			 M515.357,477.746c-3.823,0-6.679,3.389-7.647,6.733c6.293,0.044,11.229-0.704,11.229-4.005
			C518.939,478.713,517.487,477.746,515.357,477.746z"/>
		<path d="M524.894,496.668l6.534-31.244h4.018l-6.583,31.244H524.894z"/>
		<path d="M535.93,496.668l4.501-21.299h4.018l-4.502,21.299H535.93z M541.156,469.428c0-1.408,1.211-2.464,2.662-2.464
			c1.452,0,2.372,0.968,2.372,2.288c-0.049,1.452-1.161,2.465-2.71,2.465C542.076,471.717,541.156,470.749,541.156,469.428z"/>
		<path d="M552.24,475.37l2.033,12.146c0.339,2.42,0.629,4.049,0.727,5.236h0.145c0.484-1.144,1.113-2.552,2.469-4.973l7.163-12.409
			h4.404l-13.02,21.299h-3.969l-4.065-21.299H552.24z"/>
		<path d="M585.542,495.436c-1.742,0.925-4.598,1.673-7.744,1.673c-6.195,0-8.905-3.829-8.905-8.538
			c0-6.425,5.227-13.686,12.777-13.686c4.453,0,6.873,2.42,6.873,5.457c0,5.589-6.922,7.085-15.585,6.953
			c-0.193,0.924-0.049,2.904,0.483,4.048c0.92,1.893,2.808,2.86,5.228,2.86c2.759,0,4.84-0.792,6.292-1.496L585.542,495.436z
			 M581.089,477.746c-3.823,0-6.679,3.389-7.647,6.733c6.293,0.044,11.229-0.704,11.229-4.005
			C584.671,478.713,583.219,477.746,581.089,477.746z"/>
		<path d="M590.577,496.668l2.855-13.73c0.581-2.771,0.968-5.588,1.21-7.568h3.533c-0.193,1.496-0.387,2.992-0.629,4.62h0.145
			c1.501-2.904,4.018-5.104,7.164-5.104c0.339,0,0.822,0.044,1.113,0.088l-0.774,3.608c-0.242-0.044-0.63-0.088-1.065-0.088
			c-3.484,0-6.582,3.829-7.599,8.802l-1.937,9.373H590.577z"/>
		<path d="M605.97,496.668l4.501-21.299h4.018l-4.502,21.299H605.97z M611.197,469.428c0-1.408,1.21-2.464,2.661-2.464
			c1.452,0,2.372,0.968,2.372,2.288c-0.049,1.452-1.162,2.465-2.711,2.465C612.116,471.717,611.197,470.749,611.197,469.428z"/>
		<path d="M617.054,496.668l3.146-15.094c0.533-2.377,0.823-4.445,1.113-6.205h3.582l-0.581,4.181h0.097
			c2.081-2.993,5.228-4.665,8.664-4.665c2.808,0,5.953,1.452,5.953,5.941c0,0.924-0.193,2.288-0.436,3.432l-2.613,12.41h-4.018
			l2.565-12.277c0.193-0.837,0.339-1.849,0.339-2.729c0-2.156-0.92-3.741-3.679-3.741c-2.855,0-6.921,3.125-7.986,8.405
			l-2.13,10.342H617.054z"/>
		<path d="M643.144,501.509c1.403,0.792,3.727,1.408,6.195,1.408c3.92,0,7.018-1.849,8.421-7.613l0.774-3.168h-0.145
			c-2.033,3.036-4.889,4.532-8.132,4.532c-4.694,0-7.114-3.608-7.114-7.393c-0.049-7.218,5.808-14.391,14.858-14.391
			c2.711,0,5.663,0.704,7.502,1.496l-3.581,17.603c-0.968,4.489-2.275,7.613-4.743,9.506c-2.323,1.848-5.47,2.376-8.18,2.376
			c-2.856,0-5.518-0.616-7.019-1.496L643.144,501.509z M661.1,478.538c-0.726-0.308-2.178-0.704-3.872-0.704
			c-5.856,0-9.874,5.545-9.922,10.826c0,2.332,0.92,5.104,4.501,5.104c3.437,0,6.922-3.961,7.793-8.142L661.1,478.538z"/>
		<path d="M682.301,475.37l2.033,12.146c0.339,2.42,0.629,4.049,0.727,5.236h0.145c0.484-1.144,1.113-2.552,2.469-4.973
			l7.163-12.409h4.404l-13.02,21.299h-3.969l-4.065-21.299H682.301z"/>
		<path d="M713.812,496.668c0-1.276,0.242-3.301,0.532-5.501h-0.097c-2.564,4.4-5.76,5.985-9.099,5.985
			c-4.114,0-6.729-2.993-6.729-7.041c0-7.394,6.002-15.227,16.215-15.227c2.227,0,4.694,0.353,6.292,0.836l-2.372,11.09
			c-0.774,3.696-1.113,7.481-1.016,9.857H713.812z M716.426,478.098c-0.581-0.133-1.452-0.309-2.808-0.309
			c-6.05,0-10.987,5.765-11.035,11.662c0,2.376,0.919,4.708,4.017,4.708c3.34,0,7.309-3.96,8.471-9.637L716.426,478.098z"/>
		<path d="M723.59,496.668l6.534-31.244h4.018l-6.583,31.244H723.59z"/>
		<path d="M757.471,475.37l-3.146,15.094c-0.484,2.377-0.823,4.445-1.065,6.205h-3.63l0.629-4.005h-0.097
			c-2.081,2.772-5.179,4.489-8.276,4.489c-3.001,0-6.146-1.32-6.146-6.161c0-1.013,0.145-2.156,0.436-3.564l2.517-12.058h4.018
			l-2.469,11.882c-0.29,1.188-0.436,2.2-0.436,3.124c0,2.2,1.017,3.696,3.775,3.696c2.904,0,6.631-3.08,7.599-7.789l2.275-10.913
			H757.471z"/>
		<path d="M776.978,495.436c-1.742,0.925-4.598,1.673-7.744,1.673c-6.195,0-8.905-3.829-8.905-8.538
			c0-6.425,5.227-13.686,12.777-13.686c4.453,0,6.873,2.42,6.873,5.457c0,5.589-6.922,7.085-15.585,6.953
			c-0.193,0.924-0.049,2.904,0.483,4.048c0.92,1.893,2.808,2.86,5.228,2.86c2.759,0,4.84-0.792,6.292-1.496L776.978,495.436z
			 M772.524,477.746c-3.823,0-6.679,3.389-7.647,6.733c6.293,0.044,11.229-0.704,11.229-4.005
			C776.106,478.713,774.654,477.746,772.524,477.746z"/>
	</g>
</g>
</svg>
